<?xml version="1.0" encoding="iso-8859-1"?>
<!-- Generator: Adobe Illustrator 19.2.1, SVG Export Plug-In . SVG Version: 6.00 Build 0)  -->
<svg version="1.1" id="Layer_1" xmlns="http://www.w3.org/2000/svg" xmlns:xlink="http://www.w3.org/1999/xlink" x="0px" y="0px"
	 viewBox="-49 141 512 449.676" style="enable-background:new -49 141 512 449.676;" xml:space="preserve">
<path style="fill:#D1AB0D;" d="M355.145,481.875v98.762l-291.653,3.714V481.875c0-61.83,38.485-114.678,92.802-135.891
	c16.439-6.426,34.319-9.943,53.018-9.943h0.014c18.586,0,36.352,3.475,52.693,9.816
	C316.505,366.985,355.145,419.918,355.145,481.875z"/>
<path style="fill:#F8CE19;" d="M355.145,525.515v55.122l-291.653,3.714v-58.836c0-61.83,38.485-114.678,92.802-135.891
	c16.439-6.426,34.319-9.943,53.018-9.943h0.014c18.586,0,36.352,3.475,52.693,9.816
	C316.505,410.625,355.145,463.558,355.145,525.515z"/>
<rect x="202.087" y="497.332" width="14.769" height="23.44"/>
<path style="fill:#EAA96E;" d="M262.018,345.857l-18.19,21.015l-34.502,39.869l-34.757-39.812l-18.275-20.945
	c16.439-6.426,34.319-9.943,53.018-9.943h0.014C227.911,336.041,245.678,339.516,262.018,345.857z"/>
<g>
	<path style="fill:#FBCB99;" d="M243.828,366.873l-34.502,39.869l-34.757-39.812c11.129-2.725,22.766-4.166,34.742-4.166h0.014
		C221.217,362.763,232.769,364.189,243.828,366.873z"/>
	<path style="fill:#FBCB99;" d="M304.147,241.743c0,1.949-0.056,3.884-0.183,5.804c-0.225,3.729-0.664,7.387-1.313,10.987
		c-1.427,7.993-3.856,15.648-7.16,22.809c-14.985,32.596-47.933,55.235-86.164,55.235c-39.078,0-72.634-23.628-87.138-57.381
		c-2.825-6.553-4.929-13.487-6.2-20.704c-0.635-3.559-1.073-7.175-1.3-10.86c-0.141-1.949-0.198-3.912-0.198-5.889
		c0-52.368,42.453-94.835,94.835-94.835C261.693,146.908,304.147,189.375,304.147,241.743z"/>
</g>
<path style="fill:#EAA96E;" d="M302.649,258.536c-1.427,7.993-3.856,15.648-7.16,22.809c-79.258,0.423-113.93-34.799-113.93-34.799
	c-18.007,17.541-41.253,27.314-59.372,32.652c-2.825-6.553-4.929-13.487-6.2-20.704c7.951-44.318,46.719-77.959,93.339-77.959
	C255.945,180.534,294.712,214.203,302.649,258.536z"/>
<path d="M209.476,155.769c47.503,0,86.15,38.646,86.15,86.15c0,0.362-0.009,0.724-0.014,1.085
	c-57.411-1.473-91.509-20.779-104.758-30.144c6.436-7.711,9.227-13.287,9.519-13.89l-13.288-6.445
	c-0.158,0.325-15.42,30.765-63.738,47.825C124.187,193.569,162.497,155.769,209.476,155.769z"/>
<path style="fill:#694B4B;" d="M304.147,241.743c0,1.949-0.056,3.884-0.183,5.804c-85.26,3.093-122.403-34.63-122.403-34.63
	c-5.339,5.197-11.129,9.716-17.117,13.629c-17.131,11.228-35.83,17.583-49.756,21.086c-0.141-1.949-0.198-3.912-0.198-5.889
	c0-52.368,42.453-94.835,94.835-94.835c33.811,0,63.497,17.71,80.275,44.36C298.822,205.885,304.147,223.186,304.147,241.743z"/>
<path style="fill:#563939;" d="M304.147,241.743c0,1.949-0.056,3.884-0.183,5.804c-85.26,3.093-122.403-34.63-122.403-34.63
	c-5.339,5.197-11.129,9.716-17.117,13.629c16.595-27.568,46.804-46.012,81.319-46.012c15.818,0,30.732,3.87,43.837,10.733
	C298.822,205.885,304.147,223.186,304.147,241.743z"/>
<path d="M362.083,459.5c-9.273-60.512-53.619-109.499-111.577-125.716c34.866-15.912,59.159-51.103,59.159-91.865
	c0-55.648-45.273-100.919-100.919-100.919s-100.918,45.272-100.918,100.919c0,40.76,24.292,75.952,59.158,91.865
	c-65.33,18.28-113.387,78.348-113.387,149.433v107.237h206.221v0.222h62.324H365c0.258-17.753-0.543-80.43-1.25-107.342
	C363.582,473.874,362.652,463.436,362.083,459.5z M208.95,151.819c47.503,0,86.15,38.646,86.15,86.15
	c0,0.362-0.009,0.724-0.014,1.085c-57.411-1.473-91.509-20.779-104.758-30.144c6.436-7.711,9.227-13.287,9.519-13.89l-13.288-6.445
	c-0.158,0.325-15.42,30.765-63.738,47.825C123.66,189.618,161.971,151.819,208.95,151.819z M123.889,251.637
	c26.223-8.606,44.233-20.939,56.108-31.906c13.819,10.309,50.433,32.238,113.64,34.061c-7.452,39.971-42.59,70.326-84.689,70.326
	C166.097,324.118,130.458,292.667,123.889,251.637z M250.495,345.163l-41.545,47.626l-41.544-47.626
	c13.134-4.077,27.087-6.276,41.544-6.276C223.407,338.887,237.36,341.086,250.495,345.163z M134.064,571.735v-87.776h-14.769v87.776
	H68.57v-92.468c0-57.385,34.617-106.831,84.061-128.573l48.933,56.096v66.74h14.769v-66.74l48.934-56.096
	c41.63,18.306,72.742,56.251,81.537,102.041c0.377,1.963,0.553,3.958,0.589,5.956c0.279,15.625,1.216,78.334,0.919,113.045h-49.298
	l-0.411-53.743v-34.033h-14.769v34.033l0.03,53.743l-23.843,0.001L134.064,571.735L134.064,571.735z"/>
<rect x="19.933" y="336.889" width="14.769" height="16.327"/>
<rect x="-49" y="444.882" width="14.769" height="16.326"/>
<rect x="10.874" y="524.872" width="14.769" height="16.327"/>
<rect x="59.249" y="263.585" width="14.769" height="16.326"/>
<rect x="-11.831" y="204.984" width="14.769" height="16.326"/>
<rect x="54.326" y="163.686" width="14.769" height="16.326"/>
<rect x="388.366" y="336.889" width="14.769" height="16.327"/>
<rect x="448.231" y="444.882" width="14.769" height="16.326"/>
<rect x="349.05" y="263.585" width="14.769" height="16.326"/>
<rect x="420.13" y="204.984" width="14.769" height="16.326"/>
<rect x="353.974" y="163.686" width="14.769" height="16.326"/>
</svg>
