<svg xmlns="http://www.w3.org/2000/svg" xmlns:xlink="http://www.w3.org/1999/xlink" width="55" height="55" viewBox="0 0 55 55">
  <defs>
    <clipPath id="clip-ic_prototyping">
      <rect width="55" height="55"/>
    </clipPath>
  </defs>
  <g id="ic_prototyping" clip-path="url(#clip-ic_prototyping)">
    <rect width="55" height="55" fill="#fff"/>
    <g id="Prototyping" transform="translate(-28.851 -28.823)">
      <path id="Path_1" data-name="Path 1" d="M46.2,120.373v2.093a3.487,3.487,0,0,1-3.487,3.487H12.022a3.487,3.487,0,0,1-3.487-3.487v-28.6H30.855Zm0,0" transform="translate(27.163 -50.195)" fill="#e3f0f6"/>
      <path id="Path_2" data-name="Path 2" d="M44.108,120.373v2.093a3.488,3.488,0,0,1-3.488,3.487h-28.6a3.487,3.487,0,0,1-3.487-3.487v-28.6H31.553Zm0,0" transform="translate(27.163 -50.195)" fill="#e3f0f6"/>
      <path id="Path_3" data-name="Path 3" d="M8.535,56.99a3.488,3.488,0,1,1,6.975,0v-27.9a3.488,3.488,0,0,0-6.975,0Zm0,0" transform="translate(27.163 12.491)" fill="#37b429"/>
      <path id="Path_4" data-name="Path 4" d="M137.931,136.535h10.463V146.3H137.931a1.4,1.4,0,0,1-1.4-1.4V137.93a1.4,1.4,0,0,1,1.4-1.4Zm0,0" transform="translate(-90.375 -89.375)" fill="#00bcd4"/>
      <path id="Path_6" data-name="Path 6" d="M284.755,8.535h11.827a2.989,2.989,0,0,1,3.154,2.79v27.9a2.989,2.989,0,0,1-3.154,2.79H284.755a2.989,2.989,0,0,1-3.154-2.79v-27.9a2.989,2.989,0,0,1,3.154-2.79Zm0,0" transform="translate(-223.583 28.163)" fill="#e3f0f6"/>
      <path id="Path_7" data-name="Path 7" d="M299.737,97.029h0ZM281.6,76.8" transform="translate(-223.584 -34.523)" fill="#283593"/>
      <path id="Path_8" data-name="Path 8" d="M281.6,76.8h18.352V97.029H281.6Zm0,0" transform="translate(-223.584 -34.523)" fill="#3f51b5" opacity="0.36"/>
      <path id="Path_10" data-name="Path 10" d="M316.432,110.934h11.16a.7.7,0,0,1,.7.7v6.278a.7.7,0,0,1-.7.7h-11.16a.7.7,0,0,1-.7-.7v-6.278A.7.7,0,0,1,316.432,110.934Zm0,0" transform="translate(-254.926 -65.866)" fill="#00bcd4"/>
      <path id="Path_11" data-name="Path 11" d="M38.363,0H25.808A3.492,3.492,0,0,0,22.32,3.488V6.975H8.37V5.58A4.185,4.185,0,0,0,0,5.58V36.271a4.189,4.189,0,0,0,4.185,4.185H34.876a4.189,4.189,0,0,0,4.185-4.185V34.806a3.494,3.494,0,0,0,2.79-3.418V3.488A3.492,3.492,0,0,0,38.363,0ZM25.808,1.4H38.363a2.093,2.093,0,0,1,2.093,2.093V5.58H23.715V3.488A2.093,2.093,0,0,1,25.808,1.4ZM40.456,25.808H23.715V6.975H40.456ZM22.32,15l-7.629-3.143H22.32Zm-1.134,1.042-9.242,3.808a.68.68,0,0,1-.088-.32V12.555a.679.679,0,0,1,.088-.32Zm1.134,1.042v3.143H14.692ZM4.185,2.79a2.79,2.79,0,0,1,2.79,2.79V30.37a4.16,4.16,0,0,0-5.58,0V5.58a2.79,2.79,0,0,1,2.79-2.79ZM34.876,39.061H4.185a2.79,2.79,0,0,1-2.79-2.79v-2.79a2.79,2.79,0,1,1,5.58,0,.7.7,0,0,0,1.4,0V8.37H22.32v2.093H12.555a2.067,2.067,0,0,0-1.056.3c-.009,0-.017.01-.026.014-.052.032-.1.065-.152.1a.643.643,0,0,0-.065.053,2.081,2.081,0,0,0-.794,1.628v6.975a2.083,2.083,0,0,0,.81,1.642.7.7,0,0,0,.157.117,2.078,2.078,0,0,0,1.125.334H22.32v2.092H18.135a.7.7,0,1,0,0,1.4H22.32V27.2H11.16a.7.7,0,1,0,0,1.4H22.32v2.79a3.492,3.492,0,0,0,3.488,3.488H37.666v1.4a2.79,2.79,0,0,1-2.79,2.79Zm3.487-5.58H25.808a2.093,2.093,0,0,1-2.093-2.093V27.2H40.456v4.185a2.093,2.093,0,0,1-2.093,2.093Zm0,0" transform="translate(35 36)" fill="#252730"/>
      <path id="Path_12" data-name="Path 12" d="M367.631,35.528h2.79a.7.7,0,0,0,0-1.4h-2.79a.7.7,0,0,0,0,1.4Zm0,0" transform="translate(-301.94 4.657)"/>
      <path id="Path_13" data-name="Path 13" d="M369.723,341.332h-1.4a1.4,1.4,0,0,0-1.4,1.4v1.4a1.4,1.4,0,0,0,1.4,1.4h1.4a1.4,1.4,0,0,0,1.4-1.4v-1.4A1.4,1.4,0,0,0,369.723,341.332Zm-1.4,2.79v-1.4h1.4v1.4Zm0,0" transform="translate(-301.94 -277.431)"/>
      <path id="Path_14" data-name="Path 14" d="M307.669,111.107c.01.01.021.017.031.026a1.38,1.38,0,0,0,.893.333h11.16a1.386,1.386,0,0,0,.9-.334c.01-.008.02-.015.029-.025a1.386,1.386,0,0,0,.47-1.036v-6.278a1.387,1.387,0,0,0-.538-1.092l-.018-.015a1.386,1.386,0,0,0-.839-.287h-11.16a1.382,1.382,0,0,0-.837.289l-.015.012a1.388,1.388,0,0,0-.543,1.094v6.278A1.386,1.386,0,0,0,307.669,111.107Zm12.085-1.584-4.242-2.591,4.242-2.59Zm-1.779.548h-7.6l3.8-2.321Zm-3.8-3.956-3.8-2.322h7.6Zm-1.339.817-4.242,2.59v-5.181Zm0,0" transform="translate(-247.088 -58.028)" fill="#252730"/>
      <path id="Path_15" data-name="Path 15" d="M316.432,231.794h2.79a.7.7,0,1,0,0-1.4h-2.79a.7.7,0,0,0,0,1.4Zm0,0" transform="translate(-254.926 -175.566)"/>
      <path id="Path_16" data-name="Path 16" d="M390.975,230.4H384.7a.7.7,0,1,0,0,1.4h6.277a.7.7,0,1,0,0-1.4Zm0,0" transform="translate(-317.612 -175.565)"/>
      <path id="Path_17" data-name="Path 17" d="M328.29,264.535H316.432a.7.7,0,0,0,0,1.4H328.29a.7.7,0,1,0,0-1.4Zm0,0" transform="translate(-254.926 -206.912)"/>
      <path id="Path_18" data-name="Path 18" d="M128.7,291.528h3.487a.7.7,0,1,0,0-1.4H128.7a.7.7,0,1,0,0,1.4Zm0,0" transform="translate(-82.537 -230.417)"/>
    </g>
  </g>
</svg>
