<svg xmlns="http://www.w3.org/2000/svg" xmlns:xlink="http://www.w3.org/1999/xlink" width="55" height="55" viewBox="0 0 55 55">
  <defs>
    <clipPath id="clip-_ic_ux_audit">
      <rect width="55" height="55"/>
    </clipPath>
  </defs>
  <g id="_ic_ux_audit" data-name=" ic_ux audit" clip-path="url(#clip-_ic_ux_audit)">
    <rect width="55" height="55" fill="#fff"/>
    <g id="ux_audit" data-name="ux audit" transform="translate(-657.452 -40.452)">
      <path id="Path_20" data-name="Path 20" d="M154.75,7.5V45.265h21.311l3.023-4.293,1.9-1.894V7.5Zm0,0" transform="translate(520.009 42.07)" fill="#fff"/>
      <path id="Path_22" data-name="Path 22" d="M8,377.32a1.71,1.71,0,0,0,2.418,2.418l6.9-6.9.4-2.821-2.821.4Zm0,0" transform="translate(656.069 -292.903)" fill="#41494e"/>
      <path id="Path_23" data-name="Path 23" d="M104.852,313.815l5.058-5.058,2.418,2.418-5.058,5.058Zm0,0" transform="translate(566.115 -236.296)" fill="#1c8111"/>
      <path id="Path_24" data-name="Path 24" d="M256,121v20.516A10.258,10.258,0,1,0,256,121Zm0,0" transform="translate(426.452 -62.806)" fill="#8b9ea4"/>
      <path id="Path_25" data-name="Path 25" d="M139.237,131.258c0-5.665-3.572-10.258-7.979-10.258a10.258,10.258,0,0,0,0,20.516C135.664,141.516,139.237,136.924,139.237,131.258Zm0,0" transform="translate(551.194 -62.806)" fill="#a3bbc0"/>
      <path id="Path_26" data-name="Path 26" d="M256,154.75v15.387a7.694,7.694,0,0,0,0-15.387Zm0,0" transform="translate(426.452 -93.991)" fill="#1c8111"/>
      <path id="Path_27" data-name="Path 27" d="M167.858,162.444c0-4.249-2.424-7.694-5.414-7.694a7.694,7.694,0,0,0,0,15.387C165.434,170.137,167.858,166.693,167.858,162.444Zm0,0" transform="translate(520.009 -93.991)" fill="#37b429"/>
      <path id="Path_28" data-name="Path 28" d="M38.784,31.846l.024-.032.006-.011c.008-.012.015-.024.023-.037l0-.007c.007-.014.015-.028.02-.043l0,0c.006-.016.012-.031.017-.048v-.005c0-.016.009-.032.012-.049s0-.009,0-.014,0-.027.006-.041,0-.038,0-.057V.57a.57.57,0,0,0-.57-.57H11.759a.57.57,0,0,0-.57.57V12.464a10.805,10.805,0,0,0-.831,12.859L7.565,28.116l-6.9,6.9a2.28,2.28,0,0,0,3.224,3.224l6.9-6.9,2.794-2.794a10.808,10.808,0,0,0,13.759-1.686h6.434a.57.57,0,0,0,0-1.14h-5.5a10.883,10.883,0,0,0,.71-1.14h4.789a.57.57,0,1,0,0-1.14H29.519A10.78,10.78,0,0,0,29.9,22.3h3.876a.57.57,0,1,0,0-1.14H30.145a10.825,10.825,0,0,0,.121-1.14h3.51a.57.57,0,0,0,0-1.14h-3.51a10.825,10.825,0,0,0-.121-1.14h3.631a.57.57,0,1,0,0-1.14H29.9a10.78,10.78,0,0,0-.381-1.14h4.257a.57.57,0,1,0,0-1.14H28.986a10.883,10.883,0,0,0-.71-1.14h5.5a.57.57,0,0,0,0-1.14H27.341A10.808,10.808,0,0,0,12.329,11.3V1.14H37.765V30.927H31.5a.57.57,0,0,0-.57.57v6.269h-18.6V32.788a.57.57,0,1,0-1.14,0v5.547a.57.57,0,0,0,.57.57H31.5a.524.524,0,0,0,.057,0L31.6,38.9l.013,0,.049-.012h.005l.048-.017,0,0c.015-.006.029-.013.043-.02l.007,0,.038-.023.01-.006.033-.024.012-.009.032-.029.009-.008L38.738,31.9l.008-.009.029-.032.009-.012Zm-35.7,5.586A1.14,1.14,0,0,1,1.474,35.82l6.494-6.494L9.58,30.938Zm7.3-7.3L8.774,28.52l2.262-2.263a10.948,10.948,0,0,0,1.612,1.612ZM19.452,9.765a9.688,9.688,0,1,1-9.688,9.688A9.7,9.7,0,0,1,19.452,9.765Zm17.507,22.3-4.893,4.893V32.066Zm0,0" transform="translate(663 49)" fill="#252730"/>
      <path id="Path_29" data-name="Path 29" d="M155.514,163.777a8.263,8.263,0,1,0-4.914-14.907.57.57,0,1,0,.679.916,7.123,7.123,0,1,1-1.493,1.493.57.57,0,0,0-.916-.678,8.263,8.263,0,0,0,6.644,13.177Zm0,0" transform="translate(526.939 -87.061)"/>
      <path id="Path_30" data-name="Path 30" d="M207.82,249.64h8.548a.57.57,0,0,0,0-1.14H207.82a.57.57,0,1,0,0,1.14Zm0,0" transform="translate(471.498 -180.618)"/>
      <path id="Path_31" data-name="Path 31" d="M207.82,219.64h8.045a.57.57,0,0,0,0-1.14H207.82a.57.57,0,1,0,0,1.14Zm0,0" transform="translate(471.498 -152.897)"/>
      <path id="Path_32" data-name="Path 32" d="M207.82,279.64h8.045a.57.57,0,0,0,0-1.14H207.82a.57.57,0,1,0,0,1.14Zm0,0" transform="translate(471.498 -208.338)"/>
    </g>
  </g>
</svg>
