<?xml version="1.0" encoding="utf-8"?>
<!-- Generator: Adobe Illustrator 19.2.1, SVG Export Plug-In . SVG Version: 6.00 Build 0)  -->
<svg version="1.1" id="Layer_1" xmlns="http://www.w3.org/2000/svg" xmlns:xlink="http://www.w3.org/1999/xlink" x="0px" y="0px"
	 viewBox="0 0 512 388.4" style="enable-background:new 0 0 512 388.4;" xml:space="preserve">
<style type="text/css">
	.st0{fill:#D2DCF0;}
	.st1{fill:#FFFFFF;}
	.st2{fill:#FF6469;}
	.st3{fill:#FFE169;}
	.st4{fill:#87E1AA;}
	.st5{fill:#E4EAF6;}
	.st6{fill:#D2555F;}
	.st7{fill:#DEE3ED;}
	.st8{fill:#FF969B;}
	.st9{fill:#A0DCF0;}
	.st10{fill:#91E6BE;}
	.st11{fill:#464655;}
</style>
<path class="st0" d="M485.5,0h-459C11.9,0,0,11.9,0,26.5v335.4c0,14.6,11.9,26.5,26.5,26.5h459c14.6,0,26.5-11.9,26.5-26.5V26.5
	C512,11.9,500.1,0,485.5,0z M441.4,17.7h8.8c4.9,0,8.8,4,8.8,8.8s-4,8.8-8.8,8.8h-8.8c-4.9,0-8.8-4-8.8-8.8
	C432.6,21.6,436.5,17.7,441.4,17.7z M194.2,17.7h211.9c4.9,0,8.8,4,8.8,8.8s-4,8.8-8.8,8.8H194.2c-4.9,0-8.8-4-8.8-8.8
	S189.3,17.7,194.2,17.7z M150.1,17.7h8.8c4.9,0,8.8,4,8.8,8.8s-4,8.8-8.8,8.8h-8.8c-4.9,0-8.8-4-8.8-8.8S145.2,17.7,150.1,17.7z
	 M114.8,17.7h8.8c4.9,0,8.8,4,8.8,8.8s-4,8.8-8.8,8.8h-8.8c-4.9,0-8.8-4-8.8-8.8S109.9,17.7,114.8,17.7z M79.4,17.7
	c4.9,0,8.8,4,8.8,8.8s-4,8.8-8.8,8.8s-8.8-4-8.8-8.8C70.6,21.6,74.6,17.7,79.4,17.7z M53,17.7c4.9,0,8.8,4,8.8,8.8s-4,8.8-8.8,8.8
	s-8.8-4-8.8-8.8S48.1,17.7,53,17.7z M26.5,17.7c4.9,0,8.8,4,8.8,8.8s-4,8.8-8.8,8.8s-8.8-4-8.8-8.8C17.7,21.6,21.6,17.7,26.5,17.7z
	 M494.3,105.9v256c0,4.9-4,8.8-8.8,8.8H256H26.5c-4.9,0-8.8-4-8.8-8.8v-256V61.8c0-4.9,4-8.8,8.8-8.8H256h229.5c4.9,0,8.8,4,8.8,8.8
	V105.9z M485.5,35.3h-8.8c-4.9,0-8.8-4-8.8-8.8s4-8.8,8.8-8.8h8.8c4.9,0,8.8,4,8.8,8.8C494.3,31.4,490.4,35.3,485.5,35.3z"/>
<path class="st1" d="M256,370.8h229.5c4.9,0,8.8-4,8.8-8.8v-256H256V370.8z M388.4,150.1v-8.8c0-4.9,4-8.8,8.8-8.8H459
	c4.9,0,8.8,4,8.8,8.8v8.8v70.6c0,4.9-4,8.8-8.8,8.8h-61.8c-4.9,0-8.8-4-8.8-8.8V150.1z M282.5,150.1v-8.8c0-4.9,4-8.8,8.8-8.8h61.8
	c4.9,0,8.8,4,8.8,8.8v8.8v70.6c0,4.9-4,8.8-8.8,8.8h-61.8c-4.9,0-8.8-4-8.8-8.8L282.5,150.1L282.5,150.1z M291.3,256h8.8H459
	c4.9,0,8.8,4,8.8,8.8v70.6c0,4.9-4,8.8-8.8,8.8H300.1h-8.8c-4.9,0-8.8-4-8.8-8.8v-70.6C282.5,260,286.4,256,291.3,256z"/>
<circle class="st2" cx="26.5" cy="26.5" r="8.8"/>
<circle class="st3" cx="53" cy="26.5" r="8.8"/>
<circle class="st4" cx="79.4" cy="26.5" r="8.8"/>
<g>
	<path class="st5" d="M114.8,35.3h8.8c4.9,0,8.8-4,8.8-8.8s-4-8.8-8.8-8.8h-8.8c-4.9,0-8.8,4-8.8,8.8
		C105.9,31.4,109.9,35.3,114.8,35.3z"/>
	<path class="st5" d="M150.1,35.3h8.8c4.9,0,8.8-4,8.8-8.8s-4-8.8-8.8-8.8h-8.8c-4.9,0-8.8,4-8.8,8.8
		C141.2,31.4,145.2,35.3,150.1,35.3z"/>
	<path class="st5" d="M441.4,35.3h8.8c4.9,0,8.8-4,8.8-8.8s-4-8.8-8.8-8.8h-8.8c-4.9,0-8.8,4-8.8,8.8
		C432.6,31.4,436.5,35.3,441.4,35.3z"/>
	<path class="st5" d="M485.5,17.7h-8.8c-4.9,0-8.8,4-8.8,8.8s4,8.8,8.8,8.8h8.8c4.9,0,8.8-4,8.8-8.8S490.4,17.7,485.5,17.7z"/>
	<path class="st5" d="M194.2,35.3h211.9c4.9,0,8.8-4,8.8-8.8s-4-8.8-8.8-8.8H194.2c-4.9,0-8.8,4-8.8,8.8
		C185.4,31.4,189.3,35.3,194.2,35.3z"/>
</g>
<path class="st2" d="M485.5,53H256v53h238.3V61.8C494.3,56.9,490.4,53,485.5,53z M317.8,88.3h-35.3c-4.9,0-8.8-4-8.8-8.8
	s4-8.8,8.8-8.8h35.3c4.9,0,8.8,4,8.8,8.8S322.7,88.3,317.8,88.3z M388.4,88.3h-35.3c-4.9,0-8.8-4-8.8-8.8s4-8.8,8.8-8.8h35.3
	c4.9,0,8.8,4,8.8,8.8S393.3,88.3,388.4,88.3z M459,88.3h-35.3c-4.9,0-8.8-4-8.8-8.8s4-8.8,8.8-8.8H459c4.9,0,8.8,4,8.8,8.8
	S463.9,88.3,459,88.3z"/>
<g>
	<path class="st6" d="M317.8,70.6h-35.3c-4.9,0-8.8,4-8.8,8.8s4,8.8,8.8,8.8h35.3c4.9,0,8.8-4,8.8-8.8S322.7,70.6,317.8,70.6z"/>
	<path class="st6" d="M388.4,70.6h-35.3c-4.9,0-8.8,4-8.8,8.8s4,8.8,8.8,8.8h35.3c4.9,0,8.8-4,8.8-8.8S393.3,70.6,388.4,70.6z"/>
	<path class="st6" d="M459,70.6h-35.3c-4.9,0-8.8,4-8.8,8.8s4,8.8,8.8,8.8H459c4.9,0,8.8-4,8.8-8.8S463.9,70.6,459,70.6z"/>
</g>
<g>
	<path class="st7" d="M291.3,229.5h61.8c4.9,0,8.8-4,8.8-8.8v-70.6c0,4.9-4,8.8-8.8,8.8h-61.8c-4.9,0-8.8-4-8.8-8.8v70.6
		C282.5,225.6,286.4,229.5,291.3,229.5z"/>
	<path class="st7" d="M397.2,229.5H459c4.9,0,8.8-4,8.8-8.8v-70.6c0,4.9-4,8.8-8.8,8.8h-61.8c-4.9,0-8.8-4-8.8-8.8v70.6
		C388.4,225.6,392.4,229.5,397.2,229.5z"/>
</g>
<path class="st8" d="M291.3,158.9h61.8c4.9,0,8.8-4,8.8-8.8v-8.8c0-4.9-4-8.8-8.8-8.8h-61.8c-4.9,0-8.8,4-8.8,8.8v8.8
	C282.5,154.9,286.4,158.9,291.3,158.9z"/>
<path class="st9" d="M397.2,158.9H459c4.9,0,8.8-4,8.8-8.8v-8.8c0-4.9-4-8.8-8.8-8.8h-61.8c-4.9,0-8.8,4-8.8,8.8v8.8
	C388.4,154.9,392.4,158.9,397.2,158.9z"/>
<path class="st7" d="M309,264.8v70.6c0,4.9-4,8.8-8.8,8.8H459c4.9,0,8.8-4,8.8-8.8v-70.6c0-4.9-4-8.8-8.8-8.8H300.1
	C305,256,309,260,309,264.8z"/>
<path class="st10" d="M291.3,344.3h8.8c4.9,0,8.8-4,8.8-8.8v-70.6c0-4.9-4-8.8-8.8-8.8h-8.8c-4.9,0-8.8,4-8.8,8.8v70.6
	C282.5,340.3,286.4,344.3,291.3,344.3z"/>
<path class="st11" d="M256,53H26.5c-4.9,0-8.8,4-8.8,8.8v44.1v256c0,4.9,4,8.8,8.8,8.8H256V105.9V53z M88.3,79.4h141.2
	c4.9,0,8.8,4,8.8,8.8s-4,8.8-8.8,8.8H88.3c-4.9,0-8.8-4-8.8-8.8S83.4,79.4,88.3,79.4z M44.1,79.4H53c4.9,0,8.8,4,8.8,8.8
	s-4,8.8-8.8,8.8h-8.8c-4.9,0-8.8-4-8.8-8.8S39.3,79.4,44.1,79.4z M132.4,132.4h-26.5c-4.9,0-8.8-4-8.8-8.8s4-8.8,8.8-8.8h26.5
	c4.9,0,8.8,4,8.8,8.8C141.2,128.5,137.3,132.4,132.4,132.4z M141.2,158.9c0,4.9-4,8.8-8.8,8.8h-26.5c-4.9,0-8.8-4-8.8-8.8
	s4-8.8,8.8-8.8h26.5C137.3,150.1,141.2,154,141.2,158.9z M44.1,220.7H53c4.9,0,8.8,4,8.8,8.8s-4,8.8-8.8,8.8h-8.8
	c-4.9,0-8.8-4-8.8-8.8S39.3,220.7,44.1,220.7z M35.3,194.2c0-4.9,4-8.8,8.8-8.8H53c4.9,0,8.8,4,8.8,8.8s-4,8.8-8.8,8.8h-8.8
	C39.3,203,35.3,199.1,35.3,194.2z M61.8,256h8.8c4.9,0,8.8,4,8.8,8.8s-4,8.8-8.8,8.8h-8.8c-4.9,0-8.8-4-8.8-8.8S56.9,256,61.8,256z
	 M70.6,167.7h-8.8c-4.9,0-8.8-4-8.8-8.8s4-8.8,8.8-8.8h8.8c4.9,0,8.8,4,8.8,8.8S75.5,167.7,70.6,167.7z M70.6,132.4h-8.8
	c-4.9,0-8.8-4-8.8-8.8s4-8.8,8.8-8.8h8.8c4.9,0,8.8,4,8.8,8.8C79.4,128.5,75.5,132.4,70.6,132.4z M53,344.3h-8.8
	c-4.9,0-8.8-4-8.8-8.8s4-8.8,8.8-8.8H53c4.9,0,8.8,4,8.8,8.8C61.8,340.3,57.8,344.3,53,344.3z M70.6,309h-8.8c-4.9,0-8.8-4-8.8-8.8
	s4-8.8,8.8-8.8h8.8c4.9,0,8.8,4,8.8,8.8S75.5,309,70.6,309z M229.5,344.3H88.3c-4.9,0-8.8-4-8.8-8.8s4-8.8,8.8-8.8h141.2
	c4.9,0,8.8,4,8.8,8.8S234.4,344.3,229.5,344.3z M105.9,291.3h26.5c4.9,0,8.8,4,8.8,8.8s-4,8.8-8.8,8.8h-26.5c-4.9,0-8.8-4-8.8-8.8
	S101.1,291.3,105.9,291.3z M97.1,264.8c0-4.9,4-8.8,8.8-8.8h26.5c4.9,0,8.8,4,8.8,8.8s-4,8.8-8.8,8.8h-26.5
	C101.1,273.7,97.1,269.7,97.1,264.8z M229.5,309h-61.8c-4.9,0-8.8-4-8.8-8.8s4-8.8,8.8-8.8h61.8c4.9,0,8.8,4,8.8,8.8
	S234.4,309,229.5,309z M229.5,273.7h-61.8c-4.9,0-8.8-4-8.8-8.8s4-8.8,8.8-8.8h61.8c4.9,0,8.8,4,8.8,8.8S234.4,273.7,229.5,273.7z
	 M229.5,238.3H88.3c-4.9,0-8.8-4-8.8-8.8s4-8.8,8.8-8.8h141.2c4.9,0,8.8,4,8.8,8.8S234.4,238.3,229.5,238.3z M229.5,203H88.3
	c-4.9,0-8.8-4-8.8-8.8s4-8.8,8.8-8.8h141.2c4.9,0,8.8,4,8.8,8.8S234.4,203,229.5,203z M229.5,167.7h-61.8c-4.9,0-8.8-4-8.8-8.8
	s4-8.8,8.8-8.8h61.8c4.9,0,8.8,4,8.8,8.8S234.4,167.7,229.5,167.7z M229.5,132.4h-61.8c-4.9,0-8.8-4-8.8-8.8s4-8.8,8.8-8.8h61.8
	c4.9,0,8.8,4,8.8,8.8S234.4,132.4,229.5,132.4z"/>
<path class="st3" d="M88.3,97.1h141.2c4.9,0,8.8-4,8.8-8.8s-4-8.8-8.8-8.8H88.3c-4.9,0-8.8,4-8.8,8.8S83.4,97.1,88.3,97.1z"/>
<g>
	<path class="st10" d="M132.4,114.8h-26.5c-4.9,0-8.8,4-8.8,8.8s4,8.8,8.8,8.8h26.5c4.9,0,8.8-4,8.8-8.8
		C141.2,118.7,137.3,114.8,132.4,114.8z"/>
	<path class="st10" d="M132.4,150.1h-26.5c-4.9,0-8.8,4-8.8,8.8s4,8.8,8.8,8.8h26.5c4.9,0,8.8-4,8.8-8.8S137.3,150.1,132.4,150.1z"
		/>
</g>
<path class="st3" d="M229.5,185.4H88.3c-4.9,0-8.8,4-8.8,8.8s4,8.8,8.8,8.8h141.2c4.9,0,8.8-4,8.8-8.8S234.4,185.4,229.5,185.4z"/>
<g>
	<path class="st1" d="M229.5,220.7H88.3c-4.9,0-8.8,4-8.8,8.8s4,8.8,8.8,8.8h141.2c4.9,0,8.8-4,8.8-8.8S234.4,220.7,229.5,220.7z"/>
	<path class="st1" d="M229.5,114.8h-61.8c-4.9,0-8.8,4-8.8,8.8s4,8.8,8.8,8.8h61.8c4.9,0,8.8-4,8.8-8.8
		C238.3,118.7,234.4,114.8,229.5,114.8z"/>
	<path class="st1" d="M229.5,150.1h-61.8c-4.9,0-8.8,4-8.8,8.8s4,8.8,8.8,8.8h61.8c4.9,0,8.8-4,8.8-8.8S234.4,150.1,229.5,150.1z"/>
	<path class="st1" d="M229.5,256h-61.8c-4.9,0-8.8,4-8.8,8.8s4,8.8,8.8,8.8h61.8c4.9,0,8.8-4,8.8-8.8S234.4,256,229.5,256z"/>
	<path class="st1" d="M229.5,291.3h-61.8c-4.9,0-8.8,4-8.8,8.8s4,8.8,8.8,8.8h61.8c4.9,0,8.8-4,8.8-8.8S234.4,291.3,229.5,291.3z"/>
</g>
<g>
	<path class="st10" d="M105.9,273.7h26.5c4.9,0,8.8-4,8.8-8.8s-4-8.8-8.8-8.8h-26.5c-4.9,0-8.8,4-8.8,8.8S101.1,273.7,105.9,273.7z"
		/>
	<path class="st10" d="M105.9,309h26.5c4.9,0,8.8-4,8.8-8.8s-4-8.8-8.8-8.8h-26.5c-4.9,0-8.8,4-8.8,8.8S101.1,309,105.9,309z"/>
</g>
<path class="st3" d="M229.5,326.6H88.3c-4.9,0-8.8,4-8.8,8.8s4,8.8,8.8,8.8h141.2c4.9,0,8.8-4,8.8-8.8
	C238.3,330.6,234.4,326.6,229.5,326.6z"/>
<g>
	<path class="st2" d="M44.1,97.1H53c4.9,0,8.8-4,8.8-8.8s-4-8.8-8.8-8.8h-8.8c-4.9,0-8.8,4-8.8,8.8S39.3,97.1,44.1,97.1z"/>
	<path class="st2" d="M70.6,114.8h-8.8c-4.9,0-8.8,4-8.8,8.8s4,8.8,8.8,8.8h8.8c4.9,0,8.8-4,8.8-8.8
		C79.4,118.7,75.5,114.8,70.6,114.8z"/>
	<path class="st2" d="M70.6,150.1h-8.8c-4.9,0-8.8,4-8.8,8.8s4,8.8,8.8,8.8h8.8c4.9,0,8.8-4,8.8-8.8S75.5,150.1,70.6,150.1z"/>
	<path class="st2" d="M44.1,203H53c4.9,0,8.8-4,8.8-8.8s-4-8.8-8.8-8.8h-8.8c-4.9,0-8.8,4-8.8,8.8S39.3,203,44.1,203z"/>
	<path class="st2" d="M44.1,238.3H53c4.9,0,8.8-4,8.8-8.8s-4-8.8-8.8-8.8h-8.8c-4.9,0-8.8,4-8.8,8.8S39.3,238.3,44.1,238.3z"/>
	<path class="st2" d="M61.8,273.7h8.8c4.9,0,8.8-4,8.8-8.8s-4-8.8-8.8-8.8h-8.8c-4.9,0-8.8,4-8.8,8.8S56.9,273.7,61.8,273.7z"/>
	<path class="st2" d="M70.6,291.3h-8.8c-4.9,0-8.8,4-8.8,8.8s4,8.8,8.8,8.8h8.8c4.9,0,8.8-4,8.8-8.8S75.5,291.3,70.6,291.3z"/>
	<path class="st2" d="M53,326.6h-8.8c-4.9,0-8.8,4-8.8,8.8s4,8.8,8.8,8.8H53c4.9,0,8.8-4,8.8-8.8C61.8,330.6,57.8,326.6,53,326.6z"
		/>
</g>
</svg>
